<svg width="440" height="340" viewBox="0 0 440 340" xmlns="http://www.w3.org/2000/svg">
      <defs>
        <!-- Background gradient -->
        <linearGradient id="bgGradient" x1="0%" y1="0%" x2="100%" y2="100%">
          <stop offset="0%" stop-color="#0a0a12"/>
          <stop offset="100%" stop-color="#1a0f2e"/>
        </linearGradient>

        <!-- Neon glow filter -->
        <filter id="neonGlow" x="-50%" y="-50%" width="200%" height="200%">
          <feDropShadow dx="0" dy="0" stdDeviation="3" flood-color="#ff008c"/>
          <feDropShadow dx="0" dy="0" stdDeviation="6" flood-color="#00eaff"/>
        </filter>

        <!-- Grid overlay -->
        <pattern id="techGrid" width="14" height="14" patternUnits="userSpaceOnUse">
          <path d="M14 0 L0 0 0 14" fill="none" stroke="rgba(0,234,255,0.05)" stroke-width="0.5"/>
        </pattern>
      </defs>

      <!-- Layered panel background -->
      <polygon points="30,30 410,20 400,300 20,310"
               fill="url(#bgGradient)" stroke="#00eaff" stroke-width="1.5"
               filter="url(#neonGlow)"/>
      <polygon points="35,35 405,25 395,295 25,305"
               fill="url(#techGrid)" opacity="0.3"/>

      <!-- Futuristic side bars -->
      <rect x="30" y="60" width="6" height="220" fill="#ff008c" opacity="0.6"/>
      <rect x="404" y="60" width="6" height="220" fill="#00eaff" opacity="0.6"/>

      <!-- Corner markers -->
      <circle cx="30" cy="30" r="4" fill="#00ff99"/>
      <circle cx="410" cy="20" r="4" fill="#ff008c"/>
      <circle cx="400" cy="300" r="4" fill="#00eaff"/>
      <circle cx="20" cy="310" r="4" fill="#ff66cc"/>

      <!-- Title -->
      <text x="50" y="70" font-family="Orbitron, monospace" font-size="20" font-weight="bold"
            fill="#00eaff" filter="url(#neonGlow)">Note 888</text>

      <!-- Divider with glowing pulse -->
      <line x1="50" y1="80" x2="370" y2="80" stroke="#ff008c" stroke-width="1.5" opacity="0.9"/>

      <!-- Body content -->
      <text x="50" y="115" font-family="Share Tech Mono, monospace" font-size="14" fill="#c0faff">
        <tspan x="50" dy="0">>This is simply a note content, It's</tspan>
        <tspan x="50" dy="22">the third note.  </tspan>
        <tspan x="50" dy="22"></tspan>
        <tspan x="50" dy="22"></tspan>
      </text>

      <!-- Futuristic bottom panel -->
      <rect x="50" y="250" width="320" height="40" rx="4" ry="4"
            fill="rgba(0,234,255,0.08)" stroke="#ff008c" stroke-width="1"
            filter="url(#neonGlow)"/>

      <!-- Footer info -->
      <text x="60" y="275" font-family="Share Tech Mono, monospace" font-size="12"
            fill="#00ff99">Created: Sep 16, 2025, 5:59 PM</text>

      <!-- Small circuit-like details -->
      <line x1="370" y1="250" x2="400" y2="240" stroke="#00eaff" stroke-width="2"/>
      <circle cx="400" cy="240" r="4" fill="#ff008c"/>
    </svg>